HIERARCHY
ROOT Hips
{
  OFFSET 265.287 66.7526 -254.649
  CHANNELS 6 Xposition Yposition Zposition Zrotation Xrotation Yrotation
  JOINT LeftUpLeg
  {
    OFFSET 8.64259 1.95398 -2.38835
    CHANNELS 3 Zrotation Xrotation Yrotation
    JOINT LeftLeg
    {
      OFFSET 43.7702 0 0
      CHANNELS 3 Zrotation Xrotation Yrotation
      JOINT LeftFoot
      {
        OFFSET 40.6238 0 0
        CHANNELS 3 Zrotation Xrotation Yrotation
        JOINT LeftToeBase
        {
          OFFSET 12.7242 0 0
          CHANNELS 3 Zrotation Xrotation Yrotation
          End Site
          {
            OFFSET 0 0 0
          }
        }
      }
    }
  }
  JOINT RightUpLeg
  {
    OFFSET -8.2249 1.95398 -2.59336
    CHANNELS 3 Zrotation Xrotation Yrotation
    JOINT RightLeg
    {
      OFFSET 43.5653 0 0
      CHANNELS 3 Zrotation Xrotation Yrotation
      JOINT RightFoot
      {
        OFFSET 40.6238 0 0
        CHANNELS 3 Zrotation Xrotation Yrotation
        JOINT RightToeBase
        {
          OFFSET 12.7242 0 0
          CHANNELS 3 Zrotation Xrotation Yrotation
          End Site
          {
            OFFSET 0 0 0
          }
        }
      }
    }
  }
  JOINT Spine
  {
    OFFSET 0.165834 0.87714 6.61349
    CHANNELS 3 Zrotation Xrotation Yrotation
    JOINT Spine1
    {
      OFFSET 7.38963 1.71661e-005 0
      CHANNELS 3 Zrotation Xrotation Yrotation
      JOINT Spine2
      {
        OFFSET 11.9445 1.14441e-005 0
        CHANNELS 3 Zrotation Xrotation Yrotation
        JOINT Spine3
        {
          OFFSET 14.7254 4.19617e-005 0
          CHANNELS 3 Zrotation Xrotation Yrotation
          JOINT Spine4
          {
            OFFSET 10.9679 0 0
            CHANNELS 3 Zrotation Xrotation Yrotation
            JOINT RightShoulder
            {
              OFFSET 2.46616 -1.6653 3.69651
              CHANNELS 3 Zrotation Xrotation Yrotation
              JOINT RightArm
              {
                OFFSET 13.0012 0 0
                CHANNELS 3 Zrotation Xrotation Yrotation
                JOINT RightForeArm
                {
                  OFFSET 28.7848 1.52588e-005 0
                  CHANNELS 3 Zrotation Xrotation Yrotation
                  JOINT RightHand
                  {
                    OFFSET 26.5688 1.52588e-005 0
                    CHANNELS 3 Zrotation Xrotation Yrotation
                    End Site
                    {
                      OFFSET 0 0 0
                    }
                  }
                }
              }
            }
            JOINT LeftShoulder
            {
              OFFSET 2.38034 -1.29275 -3.7523
              CHANNELS 3 Zrotation Xrotation Yrotation
              JOINT LeftArm
              {
                OFFSET 16.3182 6.10351e-005 0
                CHANNELS 3 Zrotation Xrotation Yrotation
                JOINT LeftForeArm
                {
                  OFFSET 27.0901 0 0
                  CHANNELS 3 Zrotation Xrotation Yrotation
                  JOINT LeftHand
                  {
                    OFFSET 24.5451 1.52588e-005 0
                    CHANNELS 3 Zrotation Xrotation Yrotation
                    End Site
                    {
                      OFFSET 0 0 0
                    }
                  }
                }
              }
            }
            JOINT Neck
            {
              OFFSET 5.0226 -0.0266342 0
              CHANNELS 3 Zrotation Xrotation Yrotation
              JOINT Head
              {
                OFFSET 6.69364 2.86102e-005 0
                CHANNELS 3 Zrotation Xrotation Yrotation
                End Site
                {
                  OFFSET 0 0 0
                }
              }
            }
          }
        }
      }
    }
  }
}
MOTION
Frames:	12
Frame Time:	0.0416667
-180.621 97.0706 -189.431 93.3418 -43.097 91.3823 -173.495 -1.90598 89.0996 -7.63823 0.596167 0.808691 63.6338 2.0171 -1.01914 28.0131 0.127998 0.914901 174.91 2.51876 88.0899 -15.2204 0.337797 -0.162002 64.2132 0.815802 5.90513 29.3794 -0.148476 0.561027 -0.414408 7.28557 -90.0381 12.3031 -0.841684 0.0189492 0.632445 -0.839991 0.0559678 -21.9048 -0.808444 -0.234897 -1.89213 -0.808435 -0.234905 100.654 -49.0459 -84.55 29.9911 -7.17124 -5.88823 1.7272 -9.43444 -13.934 -14.6493 -0.769042 0.931061 -82.3215 -48.3869 89.9394 -29.5553 15.4315 -19.2309 3.64928 26.6182 -7.75305 6.71844 0.188876 -0.856439 11.3631 -9.18764 7.80841 -11.4967 -10.1749 -9.49069 
-180.587 97.0722 -189.474 92.8618 -43.0279 91.0131 -173.711 -1.50259 88.8986 -7.76314 0.688003 0.905557 63.837 2.1419 -0.47513 27.6295 0.297713 0.489228 174.99 2.62616 88.0304 -14.8031 1.0614 -0.270182 64.6997 0.803257 7.15016 28.281 0.0975044 -0.210891 -0.424164 7.25369 -90.0357 12.3669 -0.859787 0.0263415 0.696251 -0.857813 0.0641551 -21.8411 -0.827963 -0.233292 -1.82842 -0.827962 -0.233302 100.698 -49.1613 -84.4776 29.9294 -6.5703 -6.67937 1.8972 -10.0331 -12.4761 -15.1231 -0.463644 -1.67072 -82.516 -49.0162 89.6937 -28.7677 15.4794 -18.9648 3.73492 26.3044 -8.27383 8.28295 0.223969 -1.0807 11.267 -9.15676 8.36004 -11.6432 -10.1931 -10.4089 
-180.538 97.0287 -189.454 92.7926 -43.1151 90.7538 -173.815 -1.46928 88.6862 -7.83889 0.691809 0.84263 63.7556 2.09958 -0.342625 27.8891 0.193912 0.684236 174.931 2.95195 87.8171 -15.3864 0.932051 -0.323147 64.9822 0.777797 7.15371 28.3405 0.0654101 -0.0112516 -0.422972 7.25746 -90.008 12.3596 -0.844199 0.0799693 0.688945 -0.839866 0.117039 -21.8484 -0.829224 -0.177474 -1.83572 -0.829195 -0.177464 100.592 -49.5529 -84.6333 29.4864 -6.68981 -6.48244 2.00678 -9.54213 -13.0425 -15.4825 -0.624956 -0.512429 -82.6508 -49.1805 89.5011 -28.6119 15.2936 -18.7855 3.46765 26.1593 -7.94925 3.27219 0.0106052 -2.2569 11.0922 -9.13917 8.19957 -11.3842 -10.1423 -10.5154 
-180.382 97.0503 -189.423 93.1059 -42.9818 90.8636 -173.996 -2.14614 88.5001 -7.07894 0.562314 0.934892 63.4128 2.06475 -0.491159 28.0126 0.152376 0.715719 174.797 2.57317 87.6507 -15.3548 0.799964 -0.338063 65.2697 0.618224 6.95505 27.8448 0.166584 -0.242134 -0.454253 7.30312 -89.9905 12.2685 -0.898217 0.119964 0.597849 -0.892083 0.159378 -21.9398 -0.892741 -0.15555 -1.92711 -0.892751 -0.155561 100.539 -49.3947 -84.7197 29.6845 -6.91018 -6.43727 2.10472 -8.97998 -13.1318 -15.3966 -0.589002 -0.762757 -82.5678 -49.0063 89.6135 -28.6349 15.7724 -18.7166 3.47593 26.2297 -8.11753 3.75637 0.00695355 -2.54469 10.7776 -9.12379 8.04307 -10.5567 -10.1448 -10.516 
-180.317 97.0818 -189.44 92.8005 -43.0527 90.8107 -173.849 -2.00252 88.6394 -6.99935 0.465003 0.871625 63.5446 2.14828 -0.457647 27.8223 0.23248 0.53665 174.894 2.56957 87.7661 -14.8637 1.10242 -0.345656 64.8182 0.752273 7.48113 28.3755 0.102332 -0.364959 -0.43607 7.3105 -89.999 12.2536 -0.866157 0.0991976 0.582911 -0.860951 0.137223 -21.9545 -0.855934 -0.165727 -1.94185 -0.855923 -0.165724 100.659 -49.2974 -84.5353 29.929 -6.77127 -6.57751 2.09297 -9.1106 -13.1015 -15.7921 -0.63453 -0.534483 -82.5905 -48.6014 89.5428 -29.0591 15.5038 -18.7544 3.52426 26.2973 -7.94491 3.61121 0.0192929 -2.26889 11.2826 -9.31554 7.49526 -10.8468 -10.2534 -9.78291 
-180.188 97.0844 -189.453 92.7252 -42.7955 90.8931 -173.887 -2.02796 88.6032 -6.82486 1.82322 0.919007 63.1664 2.36328 1.20678 28.9092 -0.0355089 -0.0324431 174.683 2.38503 87.7419 -14.562 0.992016 -0.100656 64.8679 0.546529 7.30375 28.1121 0.162739 -0.544292 -0.455556 7.33231 -90.0162 12.2099 -0.913049 0.0696097 0.539305 -0.909109 0.109738 -21.9984 -0.891765 -0.208037 -1.98569 -0.891763 -0.208033 100.888 -49.5135 -84.1688 29.6392 -7.01391 -6.68609 2.07453 -9.3206 -13.518 -15.5074 -0.784643 0.700843 -82.5917 -48.3455 89.518 -29.2504 15.4799 -18.9261 3.36283 26.0602 -7.66664 3.00559 0.0149547 -2.127 11.5356 -9.43136 7.45721 -11.3058 -10.3273 -9.8886 
-180.027 97.1132 -189.382 93.0205 -42.7623 90.847 -174.048 -2.22063 88.3035 -7.13149 2.28773 0.89073 63.1917 2.55415 1.72563 29.5063 -0.257367 0.292197 174.517 2.27104 87.4366 -15.0401 1.13835 -0.170383 65.324 0.461561 7.64289 27.6233 0.218845 -0.397725 -0.469403 7.40515 -90.003 12.0644 -0.93456 0.0964443 0.393783 -0.9294 0.137477 -22.144 -0.920334 -0.188917 -2.13137 -0.920336 -0.188915 100.755 -49.3966 -84.3805 29.6032 -7.1426 -6.48255 1.92715 -9.26666 -14.0249 -15.0837 -0.76948 0.751251 -82.5304 -48.8444 89.6569 -28.8442 15.3975 -19.0743 3.45255 25.8996 -7.84615 3.82003 0.0392592 -2.02667 12.2939 -9.1529 7.88958 -11.8371 -10.171 -9.69502 
-179.68 97.0633 -189.278 92.0086 -42.7404 90.161 -174.029 -1.852 88.2137 -6.87183 2.38497 0.775198 63.5739 2.65268 1.74597 29.1815 -0.140835 0.145106 174.682 2.78786 87.43 -14.9804 1.37829 -0.294994 65.2666 0.626211 8.02706 28.0984 0.2148 -0.951701 -0.460973 7.36761 -90.009 12.1394 -0.920528 0.0837323 0.468764 -0.915921 0.124157 -22.0689 -0.903122 -0.196817 -2.0563 -0.903134 -0.196822 100.728 -49.1862 -84.43 29.8041 -7.06207 -6.34888 1.85957 -9.53984 -14.0334 -14.951 -0.759004 0.723705 -82.6744 -48.7458 89.4264 -29.039 15.4017 -19.0442 3.62438 26.0342 -8.09878 3.32451 0.0265796 -2.03913 12.0476 -9.25427 7.71818 -10.8754 -10.3144 -9.3243 
-179.253 97.0196 -189.189 90.9782 -42.94 89.2588 -174.32 -1.53673 87.7155 -6.58323 2.20869 0.745291 63.919 2.81741 2.3289 28.8941 -0.0393617 0.0359352 174.527 3.43502 87.0904 -15.1501 1.19498 -0.23798 65.7183 0.43665 8.05115 27.8058 0.243533 -0.818926 -0.446123 7.31081 -90.016 12.2529 -0.894202 0.0683622 0.582229 -0.890319 0.107657 -21.9553 -0.873414 -0.203563 -1.94266 -0.873395 -0.203545 100.753 -49.2132 -84.3889 29.5791 -7.0122 -6.08076 1.95232 -9.26436 -13.9271 -15.3772 -0.763995 0.59252 -82.7881 -49.632 89.332 -28.5782 15.1123 -18.8218 3.68614 26.4114 -8.16677 3.08044 0.00900373 -2.28003 12.308 -8.91872 8.61016 -11.0475 -10.1596 -10.0482 
-178.884 96.9642 -189.093 90.9147 -42.9183 89.5115 -174.194 -1.44147 87.9194 -7.12155 2.49275 0.757695 64.151 2.91241 2.46238 29.7621 -0.314997 0.0913626 174.743 3.1208 87.3304 -14.9477 1.99332 -0.383233 65.8376 0.392355 8.8518 28.5123 0.175431 -1.16072 -0.446356 7.40174 -90.0397 12.0708 -0.906031 0.0203704 0.400198 -0.904242 0.0602183 -22.1373 -0.870278 -0.252898 -2.1247 -0.870255 -0.252894 100.558 -49.0992 -84.6996 29.7062 -7.0083 -6.25306 2.11323 -9.03062 -13.6736 -15.5087 -0.819449 0.965049 -82.6154 -49.3399 89.5691 -28.6709 15.4586 -18.9516 3.60998 25.7135 -8.36627 3.20917 -0.00154531 -2.55245 13.4075 -8.22061 8.60808 -11.4055 -9.53372 -9.80466 
-178.34 96.8649 -189.021 89.8146 -42.4699 88.5283 -174.732 -0.711625 87.215 -7.49832 3.53252 0.810379 64.4082 3.49012 4.5207 31.376 -0.826072 0.225435 174.352 3.76276 86.8535 -15.2329 2.4018 -0.12077 66.445 0.0627462 8.91375 28.3523 0.184247 -1.02599 -0.459987 7.43849 -90.0172 11.9975 -0.922631 0.0660733 0.326897 -0.918805 0.106596 -22.2108 -0.899825 -0.2143 -2.19814 -0.899838 -0.214301 100.624 -49.1324 -84.5949 29.6805 -6.85998 -6.45041 1.93402 -9.71099 -13.7008 -15.4505 -0.802347 0.855137 -82.7797 -49.4248 89.3256 -28.4435 15.5411 -19.1235 3.84293 24.9299 -8.89653 3.90311 0.0352573 -2.07424 14.639 -7.71775 7.84641 -11.0411 -9.05789 -8.23117 
-177.614 96.7856 -188.854 89.6734 -42.0811 88.6683 -174.895 -0.431233 87.0772 -8.6792 5.0988 0.950614 64.9582 4.01298 6.43776 33.0964 -1.35792 0.257006 174.345 3.81391 86.7955 -16.0917 3.5412 -0.176361 66.8424 0.317492 10.3413 28.5421 0.238752 -1.74648 -0.446107 7.56415 -90.0375 11.746 -0.90457 0.0205041 0.075355 -0.902786 0.0602833 -22.4622 -0.868894 -0.252328 -2.44955 -0.868921 -0.252327 100.365 -48.9565 -85.0087 29.8594 -6.71295 -6.24483 1.79194 -9.99984 -13.9837 -15.7934 -0.809488 0.772218 -82.4598 -49.4292 89.8148 -28.436 15.3659 -19.1463 4.56083 24.9396 -10.0807 4.07385 -0.0057682 -2.8629 15.6387 -6.39014 7.11076 -10.62 -7.73883 -6.82378 
